<svg width="26" height="18" viewBox="0 0 26 18" fill="none" xmlns="http://www.w3.org/2000/svg">
<path d="M25.4583 3.04923C25.3111 2.52406 25.0243 2.04861 24.6284 1.6734C24.2214 1.28665 23.7226 1.01 23.1789 0.869564C21.1444 0.333314 12.9934 0.333314 12.9934 0.333314C9.59538 0.294653 6.19815 0.464695 2.82094 0.84248C2.27731 0.993295 1.77938 1.27612 1.37144 1.66581C0.970603 2.05148 0.68027 2.52706 0.528603 3.04815C0.16427 5.01087 -0.0127475 7.00377 -6.38066e-05 8.99998C-0.0130638 10.9944 0.16352 12.9866 0.528603 14.9518C0.67702 15.4707 0.96627 15.9441 1.36819 16.3266C1.7701 16.709 2.2706 16.9852 2.82094 17.1315C4.88252 17.6666 12.9934 17.6666 12.9934 17.6666C16.3958 17.7054 19.7974 17.5353 23.1789 17.1575C23.7226 17.017 24.2214 16.7404 24.6284 16.3536C25.0293 15.9712 25.3142 15.4956 25.4572 14.9778C25.831 13.0158 26.0128 11.0221 25.9999 9.0249C26.0281 7.01922 25.8465 5.01609 25.4583 3.04815V3.04923ZM10.4021 12.7093V5.29173L17.1838 9.00107L10.4021 12.7093Z" fill="#F8F8F8"/>
</svg>
